<?xml version="1.0" encoding="utf-8"?>
<!-- Generator: Adobe Illustrator 22.0.1, SVG Export Plug-In . SVG Version: 6.00 Build 0)  -->
<svg version="1.1" id="Layer_1" xmlns="http://www.w3.org/2000/svg" xmlns:xlink="http://www.w3.org/1999/xlink" x="0px" y="0px"
	 viewBox="0 0 1024 286" style="enable-background:new 0 0 1024 286;" xml:space="preserve">
<style type="text/css">
	.st0{fill-rule:evenodd;clip-rule:evenodd;fill:#404040;}
</style>
<path class="st0" d="M877.7,128.4c-1.2-3.1-2.7-5.4-4.5-7c-2.5-2.1-5.3-3.2-8.4-3.2c-5,0-10.4,1.5-16.2,4.6
	c-5.5,3.1-10.6,7.2-15.3,12.3c-5,4.9-9.1,10.4-12.3,16.4c-3.3,6.2-5.2,12.2-5.7,17.9c-0.9,6.8,0.3,10.3,3.4,10.3
	c2.8,0,6.6-1.7,11.5-5l15.3-12.3C854.6,153.7,865.3,142.5,877.7,128.4z M692.4,249.5c4-2.3,8.1-5.7,12.1-10.3c7-7.4,14-17.5,21-30.2
	l-31.9,13.2c-8.1,3.6-14.1,7.3-18,11.1c-4.3,3.8-6.6,7.7-7.1,11.9c-0.2,2.1,0.7,3.9,2.8,5.4c1.9,2,4.6,3,7.9,3
	C683.3,253.5,687.8,252.2,692.4,249.5z M756.5,110.8c-5.7,0-11.9,1.4-18.6,4.2c-6.6,2.7-13,6.4-19,11.1c-6.1,4.8-11.1,10.1-15,15.9
	c-4.2,6.2-6.7,12.3-7.3,18.4c-0.5,5.5,1.7,8.3,6.4,8.3c4.5,0,9.7-1.8,15.5-5.4c5.4-3.2,11.1-7.5,17-13c7.8-7.3,18.4-19.3,31.7-35.9
	C764.5,112,761,110.8,756.5,110.8z M651.5,118.9c0.7-2.7,1-4.1,1-4.1c0.3-2.2,0-4-1-5.2c-1.2-1.6-2.8-2.4-5-2.4
	c-3.6,0-7.3,0.9-11.2,2.8c-3.4,1.6-6.7,4-10.1,7c-5.7,5.3-10.3,11.3-13.9,17.9c0.1-0.1,0.3-0.1,0.6-0.1c-0.3,0.1-0.5,0.3-0.7,0.4
	c-1.7,2.6-3.4,6.4-5.1,11.4c-1.2,3.3-2,6.4-2.3,9.4c1.8-1.1,3.7-2.1,5.7-3.1c11.8-6.7,22.9-14.3,33.3-22.9
	C646.6,126.4,649.6,122.7,651.5,118.9z M866.3,101c5,0,9.6,1,13.8,2.9c3.9,2.2,7.3,5.3,10,9.3l5.8-6.2c2.3-2.6,4.7-3.9,7.2-3.9
	c2,0,3.8,0.6,5.2,1.8c2.3,1.9,3.3,4.3,3,7.3c-0.3,1.8-1,3.5-2.1,4.9l-6.7,8.4c-4.8,5.6-8.8,12.3-11.8,20.2
	c-2.2,6.3-3.7,12.6-4.5,18.9c-1,8.1-1,12.7,0,13.9c0.1,0.1,0.3,0.4,0.8,0.9c0.8,0.4,2,0.2,3.6-0.6l16.8-9.5c2.7-1.7,5.3-0.5,7.7,3.8
	c2.5,4.3,1.7,7.6-2.3,10.1c-8.4,5.3-14.1,8.8-17.3,10.6c-5.2,2.9-9.2,4.3-11.8,4.3c-7.2,0-11.7-2.6-13.3-7.8c-1-3.5-1.8-7.8-2.1-13
	c-0.3-4.5-0.3-8.7,0-12.4l0.1-0.8c-9.6,9.9-18.5,17.7-26.6,23.3l-13.2,7.3c-4.2,1.7-8,2.6-11.4,2.6c-4.2,0-8-0.9-11.2-2.8
	c-2.4-1.6-4.4-4-6-7.1c-1.6-3.3-2.5-7-2.8-11.3c0.1-0.7,0.2-1.4,0.2-2.3c0-0.7-0.1-1.3-0.2-1.8c-1,0.8-2,1.6-3.2,2.5
	c-0.8,0.7-1.6,1.3-2.5,2c-6.2,4.5-10.9,7.8-14.1,9.6L777,186c-18,9.5-27.3,14.5-28,14.8l-14.6,26.5c-5.5,9-11,16.4-16.5,22.4
	c-6.1,6.7-12.4,11.9-18.9,15.5c-4.7,2.7-9.6,4.4-14.8,5.2c-2.2,0.5-4.5,0.8-7,0.8c-2.2,0-4.3-0.3-6.2-0.8c-4.7-0.9-9-2.8-12.7-5.9
	c-2.9-2.2-5.1-4.8-6.5-7.8c-1.4-3.5-1.9-7.3-1.4-11.5c0.9-9.5,6.9-18.4,17.9-26.7c9.9-7.4,25.4-15.3,46.4-23.6
	c8.3-3.3,15.7-6.6,22.3-9.9l8.7-21.3c-8.4,7.4-16.4,13-24,16.8c-7.4,3.6-14.2,5.4-20.4,5.4c-7.6,0-13.6-2.7-17.9-8.2
	c-2.7-3.7-4.2-7.7-4.5-12c-8,6.4-14.9,11.5-20.8,15.3c-7,4.4-13.6,7.9-19.8,10.3c-6.2,2.3-11.9,3.7-17.3,4c-1,0-1.8,0-2.6,0
	c-1.3,0-2.7,0-4.1-0.1c-3.8-0.5-7.1-1.5-10.1-3c-0.1,0-0.2,0-0.3-0.1c-0.2,0-0.4,0-0.6-0.1c-0.1,0-0.1-0.1-0.3-0.1
	c-4.2-2.1-7.6-5.2-10.4-9.3l-0.3-0.5c-0.2-0.3-0.3-0.5-0.3-0.9H592c-16.3,7.6-32.6,12.1-49,13.5c-6.8,0.6-12.9-2-18-7.6
	c-2.2-2.6-3.8-5.6-4.9-9.1c-1-3.1-1.3-6.4-1.2-9.9c-28,23.7-47.4,35.5-58.2,35.5c-4.4,0-7.9-1.5-10.3-4.6c-2.5-2.8-3.5-6.4-3.1-10.9
	c0.8-6.8,5.2-17,13.2-30.5c8-12.5,12.1-19.9,12.4-22.1c0.6-5.5-1.9-8.3-7.4-8.3c-5.4,0-11.9,2.4-19.5,7.1c-6.4,4-13.8,9.8-22,17.3
	c-5.5,5.1-17.5,17.8-36.1,38c-2.5,2.6-5.1,3.9-7.9,3.9c-6.2,0-9-2.9-8.4-8.7l1.3-4c7.3-13.1,13.6-27.6,19-43.4l-18.5,16.8
	c-0.6,0.6-1.2,1-1.9,1.4l-5.2,4.8c-21.2,18.8-36.2,28.1-45.1,28.1c-6.1,0-10.4-2.6-13-7.8c-2.2-4.2-3-9.6-2.3-16.2l0.1-0.8
	c-9.6,9.9-18.5,17.7-26.8,23.3l-13,7.3c-4.2,1.7-8.1,2.6-11.5,2.6c-4.3,0-8-0.9-11-2.8c-2.5-1.6-4.5-4-5.9-7.1
	c-2.6-4.7-3.5-11-2.8-18.9c0.7-8,5.2-18.8,13.5-32.5c2.9-4.3,6.1-8.3,9.8-12c6.5-6.9,13.6-12.3,21.4-16.2c8.3-4.3,16.4-6.5,24.5-6.5
	c4.9,0,9.5,1,13.6,2.9c4,2.2,7.4,5.3,10.1,9.3l5.6-6.2c2.3-2.6,4.6-3.9,7-3.9c2.2,0,4.1,0.6,5.5,1.8c2.3,1.9,3.3,4.3,2.9,7.3
	c-0.2,1.8-0.8,3.5-1.8,4.9l-7.1,8.4c-4.7,5.6-8.5,12.3-11.4,20.2c-2.3,6.3-3.9,12.6-4.7,18.9c-0.4,3.9,0,5.9,1.2,5.9l4.8-2.3
	c7-4.6,15.8-11.8,26.4-21.5l10.6-9.1c0.5-0.4,1-0.8,1.4-1.1l26.6-25.4c3.2-3.4,6.6-5.1,10.4-5.1c6.7,0,10,3.9,9.7,11.8
	c-0.7,7.1-2.9,15.7-6.6,25.8c10.6-10.1,20.4-18,29.4-23.5c5.1-3.3,10-5.8,14.6-7.4c5.2-1.7,10.1-2.6,14.8-2.6
	c8.1,0,14.2,2.4,18.4,7.1c4.4,4.6,6.2,10.8,5.4,18.5c-0.8,5.3-4.1,12.6-10,21.9c-7.7,11.4-12.3,18.9-13.6,22.7l-1.1,3.8
	c0,0.4,0.1,0.7,0.5,0.9l4.4-2c16.9-10.7,32-21.8,45.3-33.3c6.3-5.7,11.3-10.3,14.8-13.9l13.5-20.8c0.2-0.3,0.5-0.7,0.8-1.1
	c0.9-1.5,1.6-2.9,2.3-4l15.5-23c-24.7,2.1-50.8,5.2-78.3,9.1c-2.3,0.3-4.4-0.2-6.3-1.6c-1.8-1.4-2.9-3.3-3.1-5.6
	c-0.4-2.2,0.1-4.2,1.5-6c1.4-1.8,3.3-2.9,5.5-3.2c30.4-4.4,59.2-7.7,86.3-9.8l-0.2,0.1c2.2-0.3,4.4-0.5,6.7-0.6l14.9-22.1
	c2-3.1,4.6-4.6,7.8-4.6c6.2,0,9,2.8,8.3,8.4l-1.5,4.5l-8.2,12.3c10.5-0.7,20.8-1.1,30.8-1.3c2.2-0.1,4.2,0.6,5.8,2.1
	c1.6,1.6,2.5,3.7,2.6,6.1c0.1,2.1-0.7,4.1-2.3,5.9c-1.6,1.5-3.5,2.4-5.7,2.5c-11.8,0.3-23.9,0.9-36.3,1.8h-0.1c-2,0.1-4,0.2-6,0.4
	l-19.2,28.8h-0.2c-10.3,14.5-17.9,26.2-22.8,35.1c-3.7,7-5.7,12.4-6,16.2c-0.4,3.7,0,6.5,1.3,8.5c1.2,2.5,3.3,3.8,6.3,3.8
	c8.8-0.1,18.3-2.2,28.5-6.2c5.3-2,9.8-4.1,13.6-6.3c-0.2-1-0.3-2.1-0.3-3.1c0.4-6,0.7-9,0.8-9.1c0.9-9.1,3.6-17.6,8.1-25.8
	c4.2-7.4,9.5-14,15.9-19.8c6.2-5.6,12.5-9.8,19.1-12.7c6.5-3,12.4-4.4,17.8-4.4c7.4,0,13.3,2.2,17.6,6.6c4.3,4.7,6,10.4,4.9,16.9
	c-1.1,6.7-3.5,12.9-7.4,18.6c-1.9,2.6-4.6,5.7-8.1,9.4c-8.1,7.9-20.7,16.7-37.7,26.3c-3,1.7-6,3.4-8.8,4.9c-0.2,0.1-0.3,0.2-0.4,0.3
	c2,2.9,5.5,4.6,10.4,5h2c6.5,0,14.9-3.1,25.3-9.1c2.6-1.6,5.3-3.5,8.3-5.6c8.2-5.5,17.1-12.5,26.8-21.1l5.2-4.6
	c0.2-0.2,0.5-0.3,0.8-0.4c0.5-0.9,1-1.7,1.5-2.5c5.2-8,11.8-15.2,19.9-21.5c7.8-6.1,16.2-10.8,25-14.3c8.9-3.6,17.2-5.4,24.9-5.4
	c7.8,0,14.4,1.9,19.9,5.8l0.5-0.4c2-2.9,4.7-4.4,7.9-4.4c6.3,0,9.1,2.8,8.4,8.4l-1.6,4.4l-7.8,12.3c-10.7,23.6-19.1,42.5-25.3,56.8
	l7.7-4.4c4.7-3.3,11.1-7.7,19.1-13.3c1.1-0.9,2-1.6,2.8-2.1l13.4-11.3c0.2-0.2,0.5-0.4,0.8-0.5c1.8-2.6,4-5.6,6.3-9
	c1.2-1.7,2.8-3.8,4.8-6.1c1.2-1.3,2.9-3.3,5.2-5.9c6.7-6.9,13.9-12.3,21.7-16.2C850.1,103.1,858.3,101,866.3,101z M313.8,19.1
	l0.2,0.1c1.3,1.6,1.9,3.9,1.6,6.8c-0.3,1.7-1.2,3.4-2.8,5c-0.2,0.1-0.3,0.2-0.3,0.3c-3.7,3.8-9.5,9.3-17.4,16.8
	c-8.5,7.6-15,13.2-19.5,16.8c-1.5,1.2-3,2.3-4.5,3.3c-8,6.1-16.5,12-25.7,17.9c-11,6.7-22.2,12.8-33.6,18.3
	c-11.4,5.4-22.2,10-32.6,13.9c-0.2,0-0.3,0.1-0.4,0.3c-0.1,0.1-0.1,0.2-0.1,0.4c2.7,17.9,5.3,33,7.6,45.1c2.2,10.5,4.6,18.5,7.2,24
	c3.1,7.1,6.3,10.7,9.7,10.8c3.4-0.1,7.6-1.3,12.7-3.6c2.6-1.2,5.3-2.6,8.3-4.2c0.1-0.1,0.1-0.2,0.1-0.3c3.8-1.7,6.9-0.3,9.3,4.3
	c2.1,4.4,1.5,7.8-1.9,10.1c-12.2,8.6-22.7,12.6-31.4,11.9H200c-4.5-0.3-8.4-1.5-11.8-3.8c-3.6-2.2-6.6-5.3-9-9.3
	c-0.1-0.2-0.2-0.3-0.4-0.3c-3.9-6.4-7-15.4-9.4-27.2l-4.9-31.3c-1.6-10.2-3.2-17.9-4.8-23c-0.1-0.2-0.2-0.4-0.3-0.5
	c-0.2-0.1-0.4-0.1-0.6-0.1c-0.2,0-0.4,0.1-0.4,0.3l-31.4,42.6c-8.4,11.3-12.9,17.4-13.6,18.3c-3,4.1-5.6,8.4-7.8,12.7
	c-2.5,4-5.8,5.9-10,5.5h-0.3c-3.1-0.3-5.2-1.2-6.4-2.8c-1.3-1.6-1.8-3.9-1.3-6.6l0.2-0.3l0.8-2.9v-0.1H89c3-5.5,6.3-10.9,10-16.1
	c0.1-0.1,0.1-0.2,0.1-0.3c1.5-2,6-8.4,13.6-19.1l37.3-49.9c8-10.3,14.9-20.5,20.6-30.6c0-0.2,0-0.4,0-0.5l7.8-16
	c2.3-5.5,3.8-10.4,4.6-14.8c0.1-1.4-0.3-2.3-1.1-2.5l-0.1-0.1c-0.9-0.2-2.5,0.2-4.8,1.2c-2.7,1.2-5.2,2.7-7.4,4.4
	c-6.7,5.2-13,10.8-19,16.9c-0.2,0.1-0.3,0.2-0.3,0.3c-5.4,5.7-12.4,14.4-21.2,26c-4.5,6.2-9.1,8-13.6,5.5c-2.3-1.4-3.7-3.1-4-5
	c-0.3-1.9,0.3-4.2,1.9-6.8c6.4-11.1,14.7-21.5,24.7-31.4c8.7-9.3,17.5-16.6,26.5-21.7c9.1-5.7,16.7-8.3,23-7.8
	c5.8,0.3,10,2.8,12.6,7.4c2.1,3.8,2.7,8.8,1.6,14.8c-1.4,8.2-5,17.7-10.7,28.6c-4.1,8.4-9.8,17.9-16.9,28.6
	c-0.1,0.1-0.2,0.3-0.2,0.5c0,0.2,0.1,0.3,0.2,0.4c0.1,0.1,0.3,0.2,0.4,0.3c0.1,0,0.3,0,0.5,0c8.8-3.2,18.1-7.1,27.7-11.7
	c10.8-5.2,21.4-11,31.8-17.5v0.1c10.3-6.3,19.9-13,28.8-20c4.1-3,7.9-5.9,11.4-8.9c2-2,6.1-5.9,12.4-11.6c6-5.9,9.9-9.7,11.7-11.5
	c2.6-2.7,5.4-3.9,8.3-3.6h0.1C309.4,16.1,311.6,17.1,313.8,19.1z M315.1,128.4c-0.9-3.1-2.3-5.4-4.4-7c-2.3-2.1-5-3.2-8.3-3.2
	c-5.1,0-10.5,1.5-16.1,4.6c-5.4,3.1-10.5,7.2-15.2,12.3c-5,4.9-9,10.4-12.1,16.4c-3.4,6.2-5.4,12.2-5.9,17.9
	c-0.9,6.8,0.3,10.3,3.4,10.3c2.7,0,6.5-1.7,11.5-5l15.5-12.3C292.4,153.7,303,142.5,315.1,128.4z"/>
</svg>
